<svg xmlns="http://www.w3.org/2000/svg" viewBox="0 0 935.84 180"><defs><style>.cls-1{fill:#1b3380;}.cls-2{fill:#fff;}</style></defs><title>qp_darkcube</title><g id="Layer_2" data-name="Layer 2"><g id="Logos"><rect class="cls-1" width="180" height="180" rx="20" ry="20"/><path class="cls-2" d="M68,153.5A10.5,10.5,0,1,1,78.5,143,10.5,10.5,0,0,1,68,153.5Z"/><path class="cls-2" d="M108,101H78v20H58V101h0V81h50a15,15,0,0,0,0-30H58V31h50a35,35,0,0,1,0,70Z"/><path class="cls-2" d="M265.65,140.92v6.23c0,7.26,1.55,8.47,9,8.47h8.47c1.73,0,3.11.69,3.11,2.42v5c0,2.43-4.32,3.46-11.75,3.46-14.19,0-21.79-3.8-21.79-19v-6.57C233.49,138.5,220,124.84,220,95.79V77c0-32.17,16.6-45.48,39.25-45.48,22.82,0,39.08,13.31,39.08,45.48V95.62c.17,29.22-13.32,43.06-32.68,45.3m19.71-63.8c0-24.38-9.85-33.72-25.76-33.72s-25.94,9.34-25.94,33.72V95.79c0,24.38,10,33.72,25.94,33.72s25.76-9.34,25.76-33.72Z"/><path class="cls-2" d="M369.91,140.23h-7.26a2.77,2.77,0,0,1-2.77-2.94v-2.77c-7.95,4.5-14.52,6.75-23,6.75-17.47,0-25.25-10.9-25.25-30.09V63.46a3,3,0,0,1,2.94-2.94h6.92a3,3,0,0,1,2.93,2.94v47.72c0,14.7,5,19.19,15.91,19.19,6.06,0,12.8-2.42,19.54-5.7V63.46a3.16,3.16,0,0,1,2.94-2.94h7.09a3,3,0,0,1,2.77,2.94v74a2.73,2.73,0,0,1-2.77,2.77"/><path class="cls-2" d="M445.82,104.44H397.23v2.07c0,17.29,6.74,23.69,20.23,23.69a225.17,225.17,0,0,0,25.76-1.56h.7a2.19,2.19,0,0,1,2.42,2.08v5c0,1.91-.69,2.94-2.94,3.29a122.45,122.45,0,0,1-25.94,2.42c-16.6,0-32.85-7.78-32.85-34.76V93.54c0-20.74,11.41-33.89,32.16-33.89,21.27,0,32,13.32,32,33.89v7.79c-.18,1.89-1.21,3.11-2.94,3.11m-10.2-11.07c0-16.42-6.23-22.82-19-22.82-12.46,0-19.54,7.09-19.54,22.82v1.38h38.56Z"/><path class="cls-2" d="M483.34,141.27c-5.36,0-15.91-.35-23-2.25-1.9-.34-3.11-1.38-3.11-2.94v-4.84a2.37,2.37,0,0,1,2.59-2.25h.69c6.92.86,17.47,1.73,22.83,1.73,9.51,0,14.35-2.42,14.35-10.37,0-4.33-2.59-7.1-10.89-12.11l-14.7-8.82c-8.82-5.36-14.87-11.58-14.87-20.75,0-15.21,11.24-19.19,26.28-19.19a130.28,130.28,0,0,1,22.65,1.9c1.9.35,2.77,1.39,2.77,2.94V69a2.18,2.18,0,0,1-2.42,2.42h-.35c-5-.34-14.35-1.21-22.47-1.21s-13.49,1-13.49,8.47c0,4.33,3.28,7.09,10,11.07l14.35,8.47c12.1,7.09,15.91,13.31,15.91,22,0,14.87-10.9,21.1-27.15,21.1"/><path class="cls-2" d="M563.05,140.58a93,93,0,0,1-9.51.69c-13.31,0-19.71-3.46-19.71-19.54V71.07l-14.18-1.73c-1.73-.18-2.76-1-2.76-2.6v-4a2.59,2.59,0,0,1,2.76-2.6h14.18V46a3.12,3.12,0,0,1,2.6-2.94l7.43-1.21h.34a2.33,2.33,0,0,1,2.25,2.42V60.17H562a2.93,2.93,0,0,1,3,2.94v5a3,3,0,0,1-3,2.94H546.45v50.66c0,8,2.08,9.16,7.78,9.16h8.13c2.08,0,3.11.69,3.11,2.08v5c.17,1.38-.51,2.25-2.42,2.6"/><path class="cls-2" d="M585.18,47.72h-7.43a2.91,2.91,0,0,1-2.94-2.94V33.2a2.91,2.91,0,0,1,2.94-2.94h7.43a2.91,2.91,0,0,1,2.94,2.94V44.78a2.91,2.91,0,0,1-2.94,2.94m-.34,92.51h-6.92a2.9,2.9,0,0,1-2.93-2.94v-74a3,3,0,0,1,2.93-2.95h6.92a2.92,2.92,0,0,1,2.94,2.95v74a2.81,2.81,0,0,1-2.94,2.94"/><path class="cls-2" d="M632.21,141.27c-21.27,0-32.16-14.18-32.16-35.45V94.93c0-21.27,10.89-35.45,32.16-35.45s32.34,14.18,32.34,35.45V106c0,21.27-11.07,35.28-32.34,35.28m19.54-46.34c0-14.87-6-24.21-19.54-24.21s-19.53,9.34-19.53,24.21V106c0,14.87,5.7,24.21,19.53,24.21,13.49,0,19.54-9.34,19.54-24.21Z"/><path class="cls-2" d="M734.41,140.23h-6.92a2.91,2.91,0,0,1-2.94-2.94V89.57c0-14.7-5-19.2-15.91-19.2-6,0-12.79,2.43-19.54,5.71v61.21a3.15,3.15,0,0,1-2.94,2.94h-7.09a3,3,0,0,1-2.76-2.94v-74a2.88,2.88,0,0,1,2.76-2.95h7.27a2.78,2.78,0,0,1,2.76,2.95v2.76c7.95-4.49,14.52-6.74,23-6.74,17.46,0,25.24,10.89,25.24,30.09v47.72c-.17,1.9-1.38,3.11-2.93,3.11"/><path class="cls-2" d="M779.88,97.35c-4.67,0-10.72-.35-14.53-.69v40.8a2.84,2.84,0,0,1-2.59,2.94H755a2.85,2.85,0,0,1-2.59-2.94V36.31c0-2.07,1.38-3.29,3.45-3.63a239.75,239.75,0,0,1,24-1.21c23.51,0,40.63,8.13,40.63,31.47v1.9c0,24.21-17.12,32.51-40.63,32.51m27.49-34.41c0-14.7-8.81-20.23-27.32-20.23-4.49,0-11.06.34-14.52.69V85.94c3.28.17,10.72.69,14.52.69,19.88,0,27.32-6.4,27.32-21.44Z"/><path class="cls-2" d="M864.08,70.55c-6.74,0-12.79,1.73-19.88,6v60.69a3.16,3.16,0,0,1-2.94,2.94h-7.09a3,3,0,0,1-2.77-2.94v-74a2.89,2.89,0,0,1,2.77-2.94h6.75a2.88,2.88,0,0,1,2.76,2.94V66.4c7.26-5,13.83-6.92,20.4-6.92,2.08,0,3.12.87,3.12,2.59v6.06c-.17,1.55-1.21,2.42-3.12,2.42"/><path class="cls-2" d="M903.51,141.27c-21.27,0-32.16-14.18-32.16-35.45V94.93c0-21.27,10.89-35.45,32.16-35.45s32.33,14.18,32.33,35.45V106c0,21.27-11.07,35.28-32.33,35.28m19.54-46.34c0-14.87-6.06-24.21-19.54-24.21S884,80.06,884,94.93V106c0,14.87,5.7,24.21,19.54,24.21,13.48,0,19.54-9.34,19.54-24.21Z"/></g></g></svg>